<svg xmlns="http://www.w3.org/2000/svg" viewBox="0 0 1280 585" preserveAspectRatio="xMidYMid" width="1280" height="585" xmlns:xlink="http://www.w3.org/1999/xlink" style="shape-rendering:auto;display:block;background-position-x:0%;background-position-y:0%;background-size:auto;background-origin:padding-box;background-clip:border-box;background:scroll rgb(255, 255, 255) none  repeat;width:1280px;height:585px;;animation:none"><g><linearGradient y2="0" y1="0" x2="1" x1="0" id="lg-ca780xlr0a"><stop offset="0" stop-color="#000000"></stop>

  
<stop offset="1" stop-color="#a71930"></stop></linearGradient>
<path opacity="0.4" fill="url(#lg-ca780xlr0a)" d="M 0 0 L 0 350.05 Q 128 384.19 256 341.07 T 512 315.33 T 768 326.64 T 1024 198.67 T 1280 167.22 L 1280 0 Z" style="fill:url('#lg-ca780xlr0a');opacity:0.4;;animation:none"></path>
<path opacity="0.4" fill="url(#lg-ca780xlr0a)" d="M 0 0 L 0 392.529 Q 128 363.351 256 341.686 T 512 327.354 T 768 242.183 T 1024 266.905 T 1280 230.757 L 1280 0 Z" style="fill:url('#lg-ca780xlr0a');opacity:0.4;;animation:none"></path>
<path opacity="0.4" fill="url(#lg-ca780xlr0a)" d="M 0 0 L 0 426.995 Q 128 357.687 256 320.936 T 512 278.666 T 768 280.406 T 1024 264.506 T 1280 242.563 L 1280 0 Z" style="fill:url('#lg-ca780xlr0a');opacity:0.4;;animation:none"></path>
<path opacity="0.4" fill="url(#lg-ca780xlr0a)" d="M 0 0 L 0 352.255 Q 128 376.866 256 332.661 T 512 312.914 T 768 270.228 T 1024 258.662 T 1280 164.19 L 1280 0 Z" style="fill:url('#lg-ca780xlr0a');opacity:0.4;;animation:none"></path>
<path opacity="0.4" fill="url(#lg-ca780xlr0a)" d="M 0 0 L 0 353.288 Q 128 403.864 256 373.83 T 512 323.419 T 768 247.782 T 1024 256.591 T 1280 220.902 L 1280 0 Z" style="fill:url('#lg-ca780xlr0a');opacity:0.4;;animation:none"></path>
<g></g></g><!-- [ldio] generated by https://loading.io --></svg>